<svg width="1440" height="350" xmlns="http://www.w3.org/2000/svg" xmlns:svg="http://www.w3.org/2000/svg">
    <g class="layer">
        <path d="m1439.5,289.71l-120,-26.7c-120,-26.3 -360,-80.3 -600,-85.3c-240,-5 -480,37 -600,58.7l-120,21.3l0,96l120,0c120,0 360,0 600,0c240,0 480,0 600,0l120,0l0,-64z" fill="#4fc685" id="svg_3"/>
        <path d="m1439,318.41l-120,-26.7c-120,-26.3 -360,-80.3 -600,-85.3c-240,-5 -480,37 -600,58.7l-120,21.3l0,96l120,0c120,0 360,0 600,0c240,0 480,0 600,0l120,0l0,-64z" fill="#009246" id="svg_1"/>
    </g>
</svg>