<svg width="100" height="100" xmlns="http://www.w3.org/2000/svg" xmlns:svg="http://www.w3.org/2000/svg" xmlns:xlink="http://www.w3.org/1999/xlink">
    <defs>
        <symbol height="800px" id="svg_1" viewBox="0 0 30 30" width="800px" xmlns="http://www.w3.org/2000/svg">
            <path d="m11.45,10c-0.4,-0.01 -0.8,0.06 -1.08,0.35c-0.29,0.28 -0.38,0.67 -0.37,1.08c0.01,0.4 0.09,0.86 0.25,1.42l4.52,15.98c0.08,0.31 0.2,0.58 0.39,0.79c0.18,0.2 0.44,0.35 0.71,0.38c0.53,0.05 0.97,-0.23 1.37,-0.6l3.14,-2.91c0.25,-0.24 0.47,-0.17 0.64,-0.01l3.25,3.13c0.29,0.27 0.65,0.38 1.01,0.38c0.36,0 0.73,-0.11 1.02,-0.39l3.3,-3.31c0.29,-0.28 0.4,-0.65 0.4,-1.01c0,-0.36 -0.11,-0.74 -0.41,-1.02l-3.25,-3.12c-0.17,-0.18 -0.16,-0.44 0.02,-0.62l3.02,-3.14c0.38,-0.4 0.67,-0.85 0.61,-1.38c-0.03,-0.27 -0.17,-0.53 -0.38,-0.72c-0.21,-0.18 -0.48,-0.3 -0.79,-0.39l-15.97,-4.64c-0.55,-0.16 -1,-0.24 -1.4,-0.25zm-0.03,1c0.26,0.01 0.66,0.07 1.17,0.22l15.97,4.64c0.65,0.19 0.37,0.56 0.11,0.82l-3.03,3.15c-0.28,0.28 -0.39,0.65 -0.39,1.01c0,0.35 0.11,0.74 0.4,1.02l3.25,3.12c0.23,0.22 0.1,0.5 -0.01,0.61l-3.3,3.3c-0.14,0.16 -0.47,0.15 -0.62,-0.01l-3.25,-3.12c-0.29,-0.27 -0.66,-0.38 -1.01,-0.38c-0.36,0 -0.72,0.11 -1,0.38l-3.15,2.91c-0.48,0.39 -0.71,0.32 -0.83,-0.1l-4.52,-15.98c-0.14,-0.52 -0.21,-0.93 -0.21,-1.18c0,-0.41 0.2,-0.41 0.42,-0.41zm-6.92,15c-0.45,0 -0.66,-0.55 -0.36,-0.85l2,-2c0.46,-0.46 1.17,0.25 0.71,0.7l-2,2c-0.09,0.1 -0.22,0.15 -0.35,0.15zm21,-22c0.45,0 0.66,0.55 0.36,0.85l-2,2c-0.46,0.46 -1.17,-0.25 -0.71,-0.7l2,-2c0.09,-0.1 0.21,-0.15 0.35,-0.15zm-21,0c-0.45,0 -0.66,0.55 -0.36,0.85l2,2c0.46,0.46 1.17,-0.25 0.71,-0.7l-2,-2c-0.09,-0.1 -0.22,-0.15 -0.35,-0.15zm-4.5,10.5c0,-0.28 0.22,-0.5 0.5,-0.5l3,0c0.28,0 0.5,0.22 0.5,0.5s-0.22,0.5 -0.5,0.5l-3,0c-0.28,0 -0.5,-0.22 -0.5,-0.5zm14.5,-14.5c0.28,0 0.5,0.22 0.5,0.5l0,3c0,0.28 -0.22,0.5 -0.5,0.5s-0.5,-0.22 -0.5,-0.5l0,-3c0,-0.28 0.22,-0.5 0.5,-0.5z" fill="#009246" id="svg_3"/>
        </symbol>
    </defs>
    <g class="layer">
        <title>Layer 1</title>
        <use id="svg_2" transform="rotate(90.6538 50.5886 49.8267) matrix(0.0989217 0 0 0.0899094 1006.67 24.4245)" x="-10065.39" xlink:href="#svg_1" y="-117.22"/>
    </g>
</svg>